<svg width="26" height="26" viewBox="0 0 26 26" fill="none" xmlns="http://www.w3.org/2000/svg">
<path d="M24.974 18.4324H7.71508L8.58165 16.4696L22.98 16.4406C23.4669 16.4406 23.8843 16.0538 23.9712 15.5188L25.9652 3.10698C26.0174 2.78146 25.9391 2.44626 25.7479 2.19165C25.6533 2.06634 25.5354 1.9654 25.4023 1.89583C25.2692 1.82626 25.124 1.78973 24.9769 1.78877L6.66013 1.72109L6.50362 0.902442C6.40508 0.380315 5.98194 0 5.50084 0H1.02307C0.751738 0 0.491515 0.119867 0.299652 0.333231C0.107788 0.546595 0 0.835979 0 1.13772C0 1.43946 0.107788 1.72885 0.299652 1.94221C0.491515 2.15558 0.751738 2.27544 1.02307 2.27544H4.67194L5.35592 5.89166L7.03979 14.958L4.87192 18.8933C4.75934 19.0622 4.69153 19.2629 4.67617 19.4725C4.6608 19.6821 4.69849 19.8923 4.78497 20.0793C4.95887 20.4629 5.30955 20.7046 5.69792 20.7046H7.518C7.12998 21.2777 6.9204 21.9758 6.92097 22.6932C6.92097 24.5174 8.25415 26 9.89455 26C11.5349 26 12.8681 24.5174 12.8681 22.6932C12.8681 21.9745 12.6537 21.2751 12.2711 20.7046H16.9401C16.5521 21.2777 16.3425 21.9758 16.3431 22.6932C16.3431 24.5174 17.6763 26 19.3167 26C20.9571 26 22.2903 24.5174 22.2903 22.6932C22.2903 21.9745 22.0758 21.2751 21.6932 20.7046H24.9769C25.5392 20.7046 26 20.1954 26 19.5669C25.9983 19.2655 25.8895 18.977 25.6973 18.7645C25.5051 18.5519 25.2451 18.4325 24.974 18.4324ZM7.08617 3.9643L23.7742 4.02554L22.1396 14.2038L9.03088 14.2296L7.08617 3.9643ZM9.89455 23.7117C9.39026 23.7117 8.97871 23.254 8.97871 22.6932C8.97871 22.1324 9.39026 21.6747 9.89455 21.6747C10.3988 21.6747 10.8104 22.1324 10.8104 22.6932C10.8104 22.9633 10.7139 23.2224 10.5421 23.4134C10.3704 23.6044 10.1374 23.7117 9.89455 23.7117ZM19.3167 23.7117C18.8124 23.7117 18.4008 23.254 18.4008 22.6932C18.4008 22.1324 18.8124 21.6747 19.3167 21.6747C19.821 21.6747 20.2325 22.1324 20.2325 22.6932C20.2325 22.9633 20.136 23.2224 19.9643 23.4134C19.7925 23.6044 19.5596 23.7117 19.3167 23.7117Z" fill="black"/>
</svg>
